<svg id="Layer_1" data-name="Layer 1" xmlns="http://www.w3.org/2000/svg" xmlns:xlink="http://www.w3.org/1999/xlink" viewBox="0 0 512 512"><defs><linearGradient id="linear-gradient" x1="99.11" y1="416.68" x2="20.13" y2="503.91" gradientTransform="matrix(3.09, 0, 0, -3.09, 101.49, 1679.28)" gradientUnits="userSpaceOnUse"><stop offset="0" stop-color="#0035d4"/><stop offset="1" stop-color="#0086ff"/></linearGradient><linearGradient id="linear-gradient-2" x1="50.67" y1="518.02" x2="66.01" y2="403.81" gradientTransform="matrix(3.09, 0, 0, -3.09, 101.49, 1679.28)" gradientUnits="userSpaceOnUse"><stop offset="0" stop-color="#a90908"/><stop offset="0.52" stop-color="#eb0977"/><stop offset="1" stop-color="#8d003a"/></linearGradient><linearGradient id="linear-gradient-3" x1="104.89" y1="516.24" x2="57.85" y2="484.32" gradientTransform="matrix(3.09, 0, 0, -3.09, 101.49, 1679.28)" gradientUnits="userSpaceOnUse"><stop offset="0" stop-color="#ffcf1e"/><stop offset="0.99" stop-color="#ff9000"/></linearGradient><linearGradient id="linear-gradient-4" x1="117.47" y1="497.71" x2="70.42" y2="465.8" xlink:href="#linear-gradient-3"/><linearGradient id="linear-gradient-5" x1="-17.73" y1="458.88" x2="118.73" y2="458.88" gradientTransform="matrix(3.09, 0, 0, -3.09, 101.49, 1679.28)" gradientUnits="userSpaceOnUse"><stop offset="0" stop-color="#ffcf1e"/><stop offset="1" stop-color="#ffff1e"/></linearGradient><linearGradient id="linear-gradient-6" x1="35.73" y1="29.79" x2="172.19" y2="29.79" gradientTransform="matrix(1.27, 2.81, 2.81, -1.27, 21.45, 4.77)" gradientUnits="userSpaceOnUse"><stop offset="0" stop-color="#00e8fe"/><stop offset="1" stop-color="#0088fa"/></linearGradient><linearGradient id="linear-gradient-7" x1="28.16" y1="386.36" x2="41.56" y2="538.81" gradientTransform="matrix(3.09, 0, 0, -3.09, 101.49, 1679.28)" gradientUnits="userSpaceOnUse"><stop offset="0" stop-color="#ff0981"/><stop offset="1" stop-color="#ff62a7"/></linearGradient></defs><rect x="42.76" y="40.04" width="426.48" height="431.91" style="fill:#0088fa;fill-opacity:0"/><path d="M301.57,84.49C225.86,47.39,156.06,48.2,120.42,81a216.58,216.58,0,0,0-57.06,86.24A227.54,227.54,0,0,0,53,209.34c-.63,6.18-1.27,13.84-1.7,20.91a26.43,26.43,0,0,1,.47-4.26c9.41-66,91-83.16,182.17-38.32S391.47,322.06,382.06,388c-4.26,30-23.51,50-51.83,58.55,6.9-2.39,16.14-5.67,22.91-8.52a237.8,237.8,0,0,0,43.78-25.55,221.6,221.6,0,0,0,43-43.56,216.31,216.31,0,0,0,20.78-34.07,83.15,83.15,0,0,0,7.54-25C478.81,235.7,404.2,134.78,301.57,84.49Z" style="fill:url(#linear-gradient)"/><path d="M436.18,205.94c-7.11-84-43.69-143.47-90.15-157.35a216.66,216.66,0,0,0-103.14-4.26A226.37,226.37,0,0,0,201.46,57.1c-5.67,2.64-12.78,6-18.87,9.29,1.32-.64,2.68-1.32,4-1.88,61.19-26.06,117.91,35.18,126.51,136.27s-34.06,204.41-95.6,230c-28,11.79-54.93,5.53-76.65-14.35,5.62,4.68,13.16,10.9,19,15.28a236.79,236.79,0,0,0,44.41,24.4,220.81,220.81,0,0,0,59.32,14.65,214.89,214.89,0,0,0,39.86.34,82.42,82.42,0,0,0,25.55-6.43c68.6-28.95,116.77-144.82,107.1-258.69Z" style="fill:url(#linear-gradient-2)"/><path d="M434.09,184.6a178.48,178.48,0,0,0-20.86-89.17,142.55,142.55,0,0,0-14.48-21.29c-63.28-40.41-186-14-274.12,58.76-64.85,53.7-93,117.62-77.84,163.61A216.57,216.57,0,0,0,101.85,384a227.92,227.92,0,0,0,34.07,26.83c7.49,4.26,17.67,10,25.55,13.88a91,91,0,0,1-10.95-5.92C94.31,383.09,112.2,301.66,190.6,237s187.28-88.15,243.49-52.38Z" style="fill:url(#linear-gradient-3)"/><path d="M413.23,95.43a178.48,178.48,0,0,1,20.86,89.17c25.55,16.27,35.82,42,32,71.33.64-7.28,1.49-17,1.75-24.36a237.36,237.36,0,0,0-5.24-50.42,220.76,220.76,0,0,0-21.72-57.1,215.16,215.16,0,0,0-22.44-32.88,82.93,82.93,0,0,0-19.71-17A142.8,142.8,0,0,1,413.23,95.43Z" style="fill:url(#linear-gradient-4)"/><path d="M440.82,124.09a221.76,221.76,0,0,1,21.72,57.1,243,243,0,0,1,5.28,50.51c-.38,7.32-.94,17-1.75,24.36-4.6,35.09-29.38,75.29-72,110.5-73.5,60.73-174.12,85.17-232.68,58.3-7.75-3.92-18-9.45-25.55-13.88a226.69,226.69,0,0,1-34.06-26.83,218.76,218.76,0,0,1-55-87.64,76.67,76.67,0,0,0,32.83,41c63.2,40.2,185.92,13.8,274-58.94,77.25-63.87,102.2-141.93,64.81-187.37A220.23,220.23,0,0,1,440.82,124.09Z" style="fill:url(#linear-gradient-5)"/><path d="M439.93,369a221.6,221.6,0,0,1-43.06,43.35,243.12,243.12,0,0,1-43.77,25.55c-6.82,2.68-15.93,6.17-22.91,8.52-34.07,10.26-80.66,4.25-130.35-20.06-85.64-41.95-149.35-123.5-149-188,.39-8.51,1.2-20.27,2.17-28.91a226.25,226.25,0,0,1,10.4-42.12,217.68,217.68,0,0,1,30.49-56.59,215.24,215.24,0,0,1,26.78-29.81,76.57,76.57,0,0,0-23.8,46.84c-10.78,74.14,63.87,175.11,166.5,225.4,89.9,44,171.44,34.66,197.42-18.23a220.92,220.92,0,0,1-20.82,34Z" style="fill:url(#linear-gradient-6)"/><path d="M263.42,470.89a221.83,221.83,0,0,1-59.32-14.64,243.47,243.47,0,0,1-44.42-24.41c-5.79-4.25-13.5-10.47-19-15.28-26.19-23.77-45.14-67-49.83-122.13-8-95,29.17-191.59,84.53-224.55,7.67-4.26,18-9.41,25.89-13a226,226,0,0,1,41.65-12.52A217.64,217.64,0,0,1,346,48.59a76.61,76.61,0,0,0-52.38,3.66c-69,29.25-117.19,145.17-107.52,259,8.51,99.73,58.46,164.84,117.14,159.9A219.2,219.2,0,0,1,263.42,470.89Z" style="fill:url(#linear-gradient-7)"/></svg>