<?xml version="1.0" encoding="utf-8"?>
<!-- Generator: Adobe Illustrator 26.0.1, SVG Export Plug-In . SVG Version: 6.00 Build 0)  -->
<svg version="1.1" id="Layer_1" xmlns="http://www.w3.org/2000/svg" xmlns:xlink="http://www.w3.org/1999/xlink" x="0px" y="0px"
	 viewBox="0 0 512 512" style="enable-background:new 0 0 512 512;" xml:space="preserve">
<style type="text/css">
	.st0{fill:#0088FA;fill-opacity:0;}
	.st1{fill:url(#SVGID_1_);}
	.st2{fill:url(#SVGID_00000019662759686800795790000015793062697523252892_);}
	.st3{fill:url(#SVGID_00000131349002935128306930000004862914659449725357_);}
	.st4{fill:url(#SVGID_00000024720304034797329810000011667809682064472199_);}
	.st5{fill:url(#SVGID_00000123439275745009101640000000256075710140951957_);}
	.st6{fill:url(#SVGID_00000024719568429191538100000003905061364161760663_);}
	.st7{fill:url(#SVGID_00000122681348456051309620000017760099475999475593_);}
</style>
<g transform="translate(67.39999389648438,-37.999996185302734)">
	<g transform="translate(0,59.093902587890625)">
		<g>
			<rect x="34.1" y="78.4" class="st0" width="309" height="312.9"/>
			<g>
				<g>
					
						<linearGradient id="SVGID_1_" gradientUnits="userSpaceOnUse" x1="18.2022" y1="407.8781" x2="-39.0178" y2="471.0781" gradientTransform="matrix(3.0854 0 0 -3.0854 242.0438 1593.1074)">
						<stop  offset="0" style="stop-color:#0035D4"/>
						<stop  offset="1" style="stop-color:#0086FF"/>
					</linearGradient>
					<path class="st1" d="M221.6,110.6c-54.9-26.9-105.4-26.3-131.3-2.5c-18.6,17.2-32.8,38.6-41.3,62.5c-3.5,9.9-6,20.1-7.5,30.5
						c-0.5,4.5-0.9,10-1.2,15.1c0-1.1,0.2-2.2,0.3-3.1c6.8-47.8,65.9-60.3,132-27.8s114.2,97.4,107.3,145.2
						c-3.1,21.8-17,36.2-37.5,42.4c5-1.7,11.7-4.1,16.6-6.2c11.2-5,21.8-11.2,31.7-18.5c11.8-9,22.3-19.6,31.2-31.6
						c5.8-7.7,10.8-16,15.1-24.7c2.8-5.7,4.6-11.8,5.5-18.1C350,220.2,296,147.1,221.6,110.6L221.6,110.6z"/>
					
						<linearGradient id="SVGID_00000069356892967914718920000000681522935568320934_" gradientUnits="userSpaceOnUse" x1="-16.8901" y1="481.3001" x2="-5.78" y2="398.5501" gradientTransform="matrix(3.0854 0 0 -3.0854 242.0438 1593.1074)">
						<stop  offset="0" style="stop-color:#A90908"/>
						<stop  offset="0.52" style="stop-color:#EB0977"/>
						<stop  offset="1" style="stop-color:#8D003A"/>
					</linearGradient>
					<path style="fill:url(#SVGID_00000069356892967914718920000000681522935568320934_);" d="M319.1,198.6
						c-5.2-60.9-31.7-103.9-65.3-114c-24.3-7-49.9-8.1-74.7-3.1c-10.3,2.1-20.3,5.2-30,9.3c-4.1,1.9-9.3,4.4-13.7,6.7
						c1-0.5,1.9-1,2.9-1.4c44.3-18.9,85.4,25.5,91.7,98.7S205.3,343,160.7,361.5c-20.3,8.5-39.8,4-55.5-10.4
						c4.1,3.4,9.5,7.9,13.8,11.1c10.1,7,20.9,12.9,32.2,17.7c13.8,5.5,28.2,9.1,43,10.6c9.6,1,19.3,1.1,28.9,0.2
						c6.4-0.6,12.6-2.1,18.5-4.7C291.3,365.1,326.2,281.1,319.1,198.6L319.1,198.6z"/>
					
						<linearGradient id="SVGID_00000178191636492992503240000008360334140515541939_" gradientUnits="userSpaceOnUse" x1="22.3927" y1="480.0122" x2="-11.6873" y2="456.8822" gradientTransform="matrix(3.0854 0 0 -3.0854 242.0438 1593.1074)">
						<stop  offset="0" style="stop-color:#FFCF1E"/>
						<stop  offset="0.99" style="stop-color:#FF9000"/>
					</linearGradient>
					<path style="fill:url(#SVGID_00000178191636492992503240000008360334140515541939_);" d="M317.6,183.2
						c0.7-22.5-4.5-44.8-15.1-64.6c-3-5.4-6.5-10.6-10.5-15.4C246.2,73.9,157.3,93,93.4,145.7C46.4,184.6,26,230.9,37,264.3
						c8,24,21.7,45.8,39.9,63.4c7.6,7.2,15.9,13.8,24.7,19.4c5.4,3.1,12.8,7.3,18.5,10.1c-2.7-1.2-5.4-2.7-7.9-4.3
						c-40.7-25.9-27.8-84.9,29-131.7S276.9,157.3,317.6,183.2L317.6,183.2z"/>
					
						<linearGradient id="SVGID_00000047021958337134730620000002364742647849501884_" gradientUnits="userSpaceOnUse" x1="31.5076" y1="466.5849" x2="-2.5824" y2="443.4649" gradientTransform="matrix(3.0854 0 0 -3.0854 242.0438 1593.1074)">
						<stop  offset="0" style="stop-color:#FFCF1E"/>
						<stop  offset="0.99" style="stop-color:#FF9000"/>
					</linearGradient>
					<path style="fill:url(#SVGID_00000047021958337134730620000002364742647849501884_);" d="M302.5,118.6
						c10.6,19.9,15.8,42.1,15.1,64.6c18.5,11.8,25.9,30.5,23.2,51.7c0.5-5.3,1.1-12.3,1.3-17.6c0-12.3-1.2-24.5-3.8-36.5
						c-3.3-14.5-8.6-28.4-15.7-41.4c-4.7-8.4-10.1-16.4-16.3-23.8c-4.1-4.8-8.9-9-14.3-12.3C296,108,299.5,113.1,302.5,118.6z"/>
					
						<linearGradient id="SVGID_00000067197967377587967660000013193724955304501169_" gradientUnits="userSpaceOnUse" x1="-66.45" y1="438.4533" x2="32.42" y2="438.4533" gradientTransform="matrix(3.0854 0 0 -3.0854 242.0438 1593.1074)">
						<stop  offset="0" style="stop-color:#FFCF1E"/>
						<stop  offset="1" style="stop-color:#FFFF1E"/>
					</linearGradient>
					<path style="fill:url(#SVGID_00000067197967377587967660000013193724955304501169_);" d="M322.5,139.3
						c7.1,13,12.4,26.9,15.7,41.4c2.5,12,3.8,24.3,3.8,36.6c-0.3,5.3-0.7,12.3-1.3,17.6c-3.3,25.4-21.3,54.6-52.2,80.1
						c-53.3,44-126.2,61.7-168.6,42.2c-5.6-2.8-13-6.8-18.5-10.1c-8.8-5.7-17.1-12.2-24.7-19.4c-11.2-10.9-20.7-23.3-28.2-37
						c-4.7-8.5-8.6-17.3-11.6-26.5c4.2,12.4,12.6,22.9,23.8,29.7c45.8,29.1,134.7,10,198.5-42.7c56-46.3,74.1-102.8,47-135.8
						C312.4,122.9,317.8,130.9,322.5,139.3z"/>
					
						<linearGradient id="SVGID_00000103242839247251599620000000962723595284652172_" gradientUnits="userSpaceOnUse" x1="-12.4438" y1="10.3249" x2="86.4252" y2="10.3249" gradientTransform="matrix(1.2717 2.8112 2.8112 -1.2717 99.0546 146.3226)">
						<stop  offset="0" style="stop-color:#00E8FE"/>
						<stop  offset="1" style="stop-color:#0088FA"/>
					</linearGradient>
					<path style="fill:url(#SVGID_00000103242839247251599620000000962723595284652172_);" d="M321.9,316.7
						c-8.9,11.9-19.4,22.4-31.2,31.4c-9.9,7.3-20.5,13.5-31.7,18.5c-4.9,1.9-11.5,4.5-16.6,6.2c-24.7,7.4-58.4,3.1-94.4-14.5
						c-62-30.4-108.2-89.5-108-136.2c0.3-6.2,0.9-14.7,1.6-21c1.5-10.4,4-20.6,7.5-30.5c5.3-14.7,12.7-28.5,22.1-41
						c5.8-7.8,12.3-15,19.4-21.6C81,117,74.8,129,73.3,142c-7.8,53.7,46.3,126.9,120.6,163.3c65.1,31.9,124.2,25.1,143-13.2
						C332.7,300.7,327.6,309,321.9,316.7L321.9,316.7z"/>
					
						<linearGradient id="SVGID_00000090980763830893075580000004545006860453551772_" gradientUnits="userSpaceOnUse" x1="-33.2028" y1="385.9063" x2="-23.4928" y2="496.3663" gradientTransform="matrix(3.0854 0 0 -3.0854 242.0438 1593.1074)">
						<stop  offset="0" style="stop-color:#FF0981"/>
						<stop  offset="1" style="stop-color:#FF62A7"/>
					</linearGradient>
					<path style="fill:url(#SVGID_00000090980763830893075580000004545006860453551772_);" d="M194,390.6
						c-14.7-1.5-29.2-5.1-43-10.6c-11.3-4.8-22.1-10.7-32.2-17.7c-4.2-3.1-9.8-7.6-13.8-11.1c-19-17.2-32.7-48.5-36.1-88.5
						c-5.8-68.8,21.1-138.8,61.2-162.7c5.6-3.1,13-6.8,18.8-9.4c9.7-4,19.8-7,30.2-9.1c15.2-3.1,30.8-3.8,46.3-2.3
						c9.6,0.9,19.2,2.7,28.4,5.4c-12.6-3.6-26-2.7-38,2.7C165.9,108.5,131,192.5,138,275c6.2,72.3,42.4,119.4,84.9,115.9
						C213.2,391.6,203.6,391.6,194,390.6z"/>
				</g>
			</g>
		</g>
	</g>
</g>
</svg>
